<!DOCTYPE svg PUBLIC "-//W3C//DTD SVG 1.1//EN" "http://www.w3.org/Graphics/SVG/1.1/DTD/svg11.dtd">
<!-- Uploaded to: SVG Repo, www.svgrepo.com, Transformed by: SVG Repo Mixer Tools -->
<svg fill="#000000" width="800px" height="800px" viewBox="0 0 24 24" id="sign-in-alt-2" data-name="Flat Color" xmlns="http://www.w3.org/2000/svg" class="icon flat-color">
<g id="SVGRepo_bgCarrier" stroke-width="0"/>
<g id="SVGRepo_tracerCarrier" stroke-linecap="round" stroke-linejoin="round"/>
<g id="SVGRepo_iconCarrier">
<path id="secondary" d="M9.71,11.29l-3-3A1,1,0,0,0,5.29,9.71L6.59,11H2a1,1,0,0,0,0,2H6.59l-1.3,1.29a1,1,0,0,0,0,1.42,1,1,0,0,0,1.42,0l3-3A1,1,0,0,0,9.71,11.29Z" style="fill: #ffffff;"/>
<path id="primary" d="M20.48,3.84l-6-1.5A2,2,0,0,0,12,4.28V5H10a1,1,0,0,0,0,2h2V17H10a1,1,0,0,0,0,2h2v.72a2,2,0,0,0,2.48,1.94l6-1.5A2,2,0,0,0,22,18.22V5.78A2,2,0,0,0,20.48,3.84Z" style="fill: #ffffff;"/>
</g>
</svg>