<!DOCTYPE svg PUBLIC "-//W3C//DTD SVG 1.1//EN" "http://www.w3.org/Graphics/SVG/1.1/DTD/svg11.dtd">
<!-- Uploaded to: SVG Repo, www.svgrepo.com, Transformed by: SVG Repo Mixer Tools -->
<svg width="800px" height="800px" viewBox="0 0 24 24" fill="none" xmlns="http://www.w3.org/2000/svg">
<g id="SVGRepo_bgCarrier" stroke-width="0"/>
<g id="SVGRepo_tracerCarrier" stroke-linecap="round" stroke-linejoin="round"/>
<g id="SVGRepo_iconCarrier"> <path d="M8.18185 10.7027H6.00004C5.44776 10.7027 5.00005 11.1485 5.00004 11.7008C5.00001 13.3483 4.99996 16.6772 5.00006 18.9189C5.00018 21.4317 8.88614 22 12 22C15.1139 22 18.9999 21.4317 18.9999 18.9189C19 16.6773 19 13.3483 18.9999 11.7008C18.9999 11.1485 18.5522 10.7027 17.9999 10.7027H15.8181H8.18185ZM8.18185 10.7027C8.18185 10.7027 8.18189 8.13513 8.18185 6.59459C8.18181 4.74571 9.70882 3 12 3C14.2912 3 15.8181 4.74571 15.8181 6.59459" stroke="#ffffff" stroke-width="2" stroke-linecap="round" stroke-linejoin="round"/> <path fill-rule="evenodd" clip-rule="evenodd" d="M13 16.6181V18C13 18.5523 12.5523 19 12 19C11.4477 19 11 18.5523 11 18V16.6181C10.6931 16.3434 10.5 15.9442 10.5 15.5C10.5 14.6716 11.1716 14 12 14C12.8284 14 13.5 14.6716 13.5 15.5C13.5 15.9442 13.3069 16.3434 13 16.6181Z" fill="#ffffff"/> </g>
</svg>